<svg width="58" height="58" viewBox="0 0 58 58" fill="none" xmlns="http://www.w3.org/2000/svg">
<circle cx="29" cy="29" r="28.5" stroke="#5090DA"/>
<mask id="mask0_216_1364" style="mask-type:alpha" maskUnits="userSpaceOnUse" x="14" y="14" width="30" height="30">
<rect x="14" y="14" width="30" height="30" fill="#D9D9D9"/>
</mask>
<g mask="url(#mask0_216_1364)">
<path d="M25.875 34.625V23.375L34.625 29L25.875 34.625ZM29 42.75C26.75 42.75 24.6406 42.2344 22.6719 41.2031C20.7031 40.1719 19.0625 38.7292 17.75 36.875V40.25H15.25V32.75H22.75V35.25H19.6875C20.75 36.8125 22.099 38.0365 23.7344 38.9219C25.3698 39.8073 27.125 40.25 29 40.25C31.3958 40.25 33.5677 39.5625 35.5156 38.1875C37.4635 36.8125 38.8333 34.9896 39.625 32.7188L42.0625 33.2812C41.125 36.1146 39.4583 38.401 37.0625 40.1406C34.6667 41.8802 31.9792 42.75 29 42.75ZM15.3125 27.75C15.4583 26.3542 15.7917 25.0156 16.3125 23.7344C16.8333 22.4531 17.5521 21.2708 18.4688 20.1875L20.25 21.9688C19.5833 22.8229 19.0417 23.7344 18.625 24.7031C18.2083 25.6719 17.9479 26.6875 17.8438 27.75H15.3125ZM22 20.2188L20.2188 18.4375C21.3229 17.5208 22.5104 16.7969 23.7812 16.2656C25.0521 15.7344 26.375 15.4167 27.75 15.3125V17.8125C26.6875 17.9167 25.6771 18.1771 24.7188 18.5938C23.7604 19.0104 22.8542 19.5521 22 20.2188ZM36.0312 20.2188C35.1771 19.5521 34.2656 19.0104 33.2969 18.5938C32.3281 18.1771 31.3125 17.9167 30.25 17.8125V15.3125C31.6458 15.4375 32.9844 15.7604 34.2656 16.2813C35.5469 16.8021 36.7292 17.5208 37.8125 18.4375L36.0312 20.2188ZM40.1875 27.75C40.0833 26.6875 39.8229 25.6719 39.4062 24.7031C38.9896 23.7344 38.4479 22.8229 37.7812 21.9688L39.5625 20.1875C40.4792 21.2708 41.1979 22.4531 41.7188 23.7344C42.2396 25.0156 42.5625 26.3542 42.6875 27.75H40.1875Z" fill="#5090DA"/>
</g>
</svg>
