<svg width="58" height="58" viewBox="0 0 58 58" fill="none" xmlns="http://www.w3.org/2000/svg">
<circle cx="29" cy="29" r="28.5" stroke="#5090DA"/>
<mask id="mask0_216_1396" style="mask-type:alpha" maskUnits="userSpaceOnUse" x="14" y="14" width="30" height="30">
<rect x="14" y="14" width="30" height="30" fill="#D9D9D9"/>
</mask>
<g mask="url(#mask0_216_1396)">
<path d="M21.5 32.75H24V25.25H21.5V32.75ZM27.75 32.75H30.25V25.25H27.75V32.75ZM34 32.75H36.5V25.25H34V32.75ZM19 35.25H39V22.75H19V35.25ZM20.25 40.25V37.75H19C18.3125 37.75 17.724 37.5052 17.2344 37.0156C16.7448 36.526 16.5 35.9375 16.5 35.25V22.75C16.5 22.0625 16.7448 21.474 17.2344 20.9844C17.724 20.4948 18.3125 20.25 19 20.25H20.25V17.75H22.75V20.25H27.75V17.75H30.25V20.25H35.25V17.75H37.75V20.25H39C39.6875 20.25 40.276 20.4948 40.7656 20.9844C41.2552 21.474 41.5 22.0625 41.5 22.75V35.25C41.5 35.9375 41.2552 36.526 40.7656 37.0156C40.276 37.5052 39.6875 37.75 39 37.75H37.75V40.25H35.25V37.75H30.25V40.25H27.75V37.75H22.75V40.25H20.25Z" fill="#5090DA"/>
</g>
</svg>
