<svg width="58" height="58" viewBox="0 0 58 58" fill="none" xmlns="http://www.w3.org/2000/svg">
<circle cx="29" cy="29" r="28.5" stroke="#5090DA"/>
<mask id="mask0_216_1386" style="mask-type:alpha" maskUnits="userSpaceOnUse" x="14" y="14" width="30" height="30">
<rect x="14" y="14" width="30" height="30" fill="#D9D9D9"/>
</mask>
<g mask="url(#mask0_216_1386)">
<path d="M29 40.25C25.8542 40.25 23.1927 39.7656 21.0156 38.7969C18.8385 37.8281 17.75 36.6458 17.75 35.25V22.75C17.75 21.375 18.849 20.1979 21.0469 19.2188C23.2448 18.2396 25.8958 17.75 29 17.75C32.1042 17.75 34.7552 18.2396 36.9531 19.2188C39.151 20.1979 40.25 21.375 40.25 22.75V35.25C40.25 36.6458 39.1615 37.8281 36.9844 38.7969C34.8073 39.7656 32.1458 40.25 29 40.25ZM29 25.2812C30.8542 25.2812 32.7188 25.0156 34.5938 24.4844C36.4688 23.9531 37.5208 23.3854 37.75 22.7812C37.5208 22.1771 36.474 21.6042 34.6094 21.0625C32.7448 20.5208 30.875 20.25 29 20.25C27.1042 20.25 25.2448 20.5156 23.4219 21.0469C21.599 21.5781 20.5417 22.1562 20.25 22.7812C20.5417 23.4062 21.599 23.9792 23.4219 24.5C25.2448 25.0208 27.1042 25.2812 29 25.2812ZM29 31.5C29.875 31.5 30.7188 31.4583 31.5313 31.375C32.3438 31.2917 33.1198 31.1719 33.8594 31.0156C34.599 30.8594 35.2969 30.6667 35.9531 30.4375C36.6094 30.2083 37.2083 29.9479 37.75 29.6563V25.9062C37.2083 26.1979 36.6094 26.4583 35.9531 26.6875C35.2969 26.9167 34.599 27.1094 33.8594 27.2656C33.1198 27.4219 32.3438 27.5417 31.5313 27.625C30.7188 27.7083 29.875 27.75 29 27.75C28.125 27.75 27.2708 27.7083 26.4375 27.625C25.6042 27.5417 24.8177 27.4219 24.0781 27.2656C23.3385 27.1094 22.6458 26.9167 22 26.6875C21.3542 26.4583 20.7708 26.1979 20.25 25.9062V29.6563C20.7708 29.9479 21.3542 30.2083 22 30.4375C22.6458 30.6667 23.3385 30.8594 24.0781 31.0156C24.8177 31.1719 25.6042 31.2917 26.4375 31.375C27.2708 31.4583 28.125 31.5 29 31.5ZM29 37.75C29.9583 37.75 30.9323 37.6771 31.9219 37.5312C32.9115 37.3854 33.8229 37.1927 34.6562 36.9531C35.4896 36.7135 36.1875 36.4427 36.75 36.1406C37.3125 35.8385 37.6458 35.5312 37.75 35.2188V32.1563C37.2083 32.4479 36.6094 32.7083 35.9531 32.9375C35.2969 33.1667 34.599 33.3594 33.8594 33.5156C33.1198 33.6719 32.3438 33.7917 31.5313 33.875C30.7188 33.9583 29.875 34 29 34C28.125 34 27.2708 33.9583 26.4375 33.875C25.6042 33.7917 24.8177 33.6719 24.0781 33.5156C23.3385 33.3594 22.6458 33.1667 22 32.9375C21.3542 32.7083 20.7708 32.4479 20.25 32.1563V35.25C20.3542 35.5625 20.6823 35.8646 21.2344 36.1562C21.7865 36.4479 22.4792 36.7135 23.3125 36.9531C24.1458 37.1927 25.0625 37.3854 26.0625 37.5312C27.0625 37.6771 28.0417 37.75 29 37.75Z" fill="#5090DA"/>
</g>
</svg>
