<svg width="58" height="58" viewBox="0 0 58 58" fill="none" xmlns="http://www.w3.org/2000/svg">
<circle cx="29" cy="29" r="28.5" stroke="#5090DA"/>
<mask id="mask0_216_1374" style="mask-type:alpha" maskUnits="userSpaceOnUse" x="14" y="14" width="30" height="30">
<rect x="14" y="14" width="30" height="30" fill="#D9D9D9"/>
</mask>
<g mask="url(#mask0_216_1374)">
<path d="M22.75 40.25C21.0208 40.25 19.5469 39.6406 18.3281 38.4219C17.1094 37.2031 16.5 35.7292 16.5 34C16.5 32.4792 16.974 31.151 17.9219 30.0156C18.8698 28.8802 20.0625 28.1667 21.5 27.875V30.4688C20.7708 30.7188 20.1719 31.1667 19.7031 31.8125C19.2344 32.4583 19 33.1875 19 34C19 35.0417 19.3646 35.9271 20.0938 36.6562C20.8229 37.3854 21.7083 37.75 22.75 37.75C23.7917 37.75 24.6771 37.3854 25.4062 36.6562C26.1354 35.9271 26.5 35.0417 26.5 34V32.75H33.8438C34.0104 32.5625 34.2135 32.4115 34.4531 32.2969C34.6927 32.1823 34.9583 32.125 35.25 32.125C35.7708 32.125 36.2135 32.3073 36.5781 32.6719C36.9427 33.0365 37.125 33.4792 37.125 34C37.125 34.5208 36.9427 34.9635 36.5781 35.3281C36.2135 35.6927 35.7708 35.875 35.25 35.875C34.9583 35.875 34.6927 35.8177 34.4531 35.7031C34.2135 35.5885 34.0104 35.4375 33.8438 35.25H28.875C28.5833 36.6875 27.8698 37.8802 26.7344 38.8281C25.599 39.776 24.2708 40.25 22.75 40.25ZM35.25 40.25C34.0833 40.25 33.026 39.9635 32.0781 39.3906C31.1302 38.8177 30.3854 38.0625 29.8438 37.125H33.1875C33.4792 37.3333 33.8021 37.4896 34.1562 37.5938C34.5104 37.6979 34.875 37.75 35.25 37.75C36.2917 37.75 37.1771 37.3854 37.9062 36.6562C38.6354 35.9271 39 35.0417 39 34C39 32.9583 38.6354 32.0729 37.9062 31.3438C37.1771 30.6146 36.2917 30.25 35.25 30.25C34.8333 30.25 34.4479 30.3073 34.0938 30.4219C33.7396 30.5365 33.4062 30.7083 33.0938 30.9375L29.2812 24.5938C28.8438 24.5104 28.4792 24.3021 28.1875 23.9688C27.8958 23.6354 27.75 23.2292 27.75 22.75C27.75 22.2292 27.9323 21.7865 28.2969 21.4219C28.6615 21.0573 29.1042 20.875 29.625 20.875C30.1458 20.875 30.5885 21.0573 30.9531 21.4219C31.3177 21.7865 31.5 22.2292 31.5 22.75V23.0156C31.5 23.0885 31.4792 23.1771 31.4375 23.2812L34.1562 27.8438C34.3229 27.8021 34.5 27.776 34.6875 27.7656C34.875 27.7552 35.0625 27.75 35.25 27.75C36.9792 27.75 38.4531 28.3594 39.6719 29.5781C40.8906 30.7969 41.5 32.2708 41.5 34C41.5 35.7292 40.8906 37.2031 39.6719 38.4219C38.4531 39.6406 36.9792 40.25 35.25 40.25ZM22.75 35.875C22.2292 35.875 21.7865 35.6927 21.4219 35.3281C21.0573 34.9635 20.875 34.5208 20.875 34C20.875 33.5417 21.0208 33.1458 21.3125 32.8125C21.6042 32.4792 21.9583 32.2604 22.375 32.1563L25.3125 27.2812C24.7083 26.7188 24.2344 26.0469 23.8906 25.2656C23.5469 24.4844 23.375 23.6458 23.375 22.75C23.375 21.0208 23.9844 19.5469 25.2031 18.3281C26.4219 17.1094 27.8958 16.5 29.625 16.5C31.3542 16.5 32.8281 17.1094 34.0469 18.3281C35.2656 19.5469 35.875 21.0208 35.875 22.75H33.375C33.375 21.7083 33.0104 20.8229 32.2812 20.0938C31.5521 19.3646 30.6667 19 29.625 19C28.5833 19 27.6979 19.3646 26.9688 20.0938C26.2396 20.8229 25.875 21.7083 25.875 22.75C25.875 23.6458 26.1458 24.4323 26.6875 25.1094C27.2292 25.7865 27.9167 26.2188 28.75 26.4062L24.5312 33.4375C24.5729 33.5417 24.599 33.6354 24.6094 33.7188C24.6198 33.8021 24.625 33.8958 24.625 34C24.625 34.5208 24.4427 34.9635 24.0781 35.3281C23.7135 35.6927 23.2708 35.875 22.75 35.875Z" fill="#5090DA"/>
</g>
</svg>
