<svg width="58" height="58" viewBox="0 0 58 58" fill="none" xmlns="http://www.w3.org/2000/svg">
<circle cx="29" cy="29" r="28.5" stroke="#5090DA"/>
<mask id="mask0_216_1406" style="mask-type:alpha" maskUnits="userSpaceOnUse" x="14" y="14" width="30" height="30">
<rect x="14" y="14" width="30" height="30" fill="#D9D9D9"/>
</mask>
<g mask="url(#mask0_216_1406)">
<path d="M19 40.25V34.9375L35.4688 18.5C35.7188 18.25 36 18.0625 36.3125 17.9375C36.625 17.8125 36.9375 17.75 37.25 17.75C37.5833 17.75 37.901 17.8125 38.2031 17.9375C38.5052 18.0625 38.7708 18.25 39 18.5L40.75 20.25C41 20.4792 41.1875 20.7448 41.3125 21.0469C41.4375 21.349 41.5 21.6667 41.5 22C41.5 22.3125 41.4375 22.625 41.3125 22.9375C41.1875 23.25 41 23.5313 40.75 23.7813L24.3125 40.25H19ZM21.5 37.75H23.25L35.5312 25.5L34.6562 24.5938L33.75 23.7188L21.5 36V37.75ZM34.6562 24.5938L33.75 23.7188L35.5312 25.5L34.6562 24.5938ZM31.5 40.25C33.0417 40.25 34.4688 39.8646 35.7812 39.0938C37.0938 38.3229 37.75 37.25 37.75 35.875C37.75 35.125 37.5521 34.4792 37.1562 33.9375C36.7604 33.3958 36.2292 32.9271 35.5625 32.5312L33.7188 34.375C34.1979 34.5833 34.5729 34.8125 34.8438 35.0625C35.1146 35.3125 35.25 35.5833 35.25 35.875C35.25 36.3542 34.8698 36.7865 34.1094 37.1719C33.349 37.5573 32.4792 37.75 31.5 37.75C31.1458 37.75 30.849 37.8698 30.6094 38.1094C30.3698 38.349 30.25 38.6458 30.25 39C30.25 39.3542 30.3698 39.651 30.6094 39.8906C30.849 40.1302 31.1458 40.25 31.5 40.25ZM19.7188 30.6875L21.5938 28.8125C21.1771 28.6458 20.849 28.474 20.6094 28.2969C20.3698 28.1198 20.25 27.9375 20.25 27.75C20.25 27.5 20.4375 27.25 20.8125 27C21.1875 26.75 21.9792 26.3646 23.1875 25.8438C25.0208 25.0521 26.2396 24.3333 26.8438 23.6875C27.4479 23.0417 27.75 22.3125 27.75 21.5C27.75 20.3542 27.2917 19.4427 26.375 18.7656C25.4583 18.0885 24.25 17.75 22.75 17.75C21.8125 17.75 20.974 17.9167 20.2344 18.25C19.4948 18.5833 18.9271 18.9896 18.5312 19.4688C18.3021 19.7396 18.2083 20.0417 18.25 20.375C18.2917 20.7083 18.4479 20.9792 18.7188 21.1875C18.9896 21.4167 19.2917 21.5104 19.625 21.4688C19.9583 21.4271 20.2396 21.2917 20.4688 21.0625C20.7604 20.7708 21.0833 20.5625 21.4375 20.4375C21.7917 20.3125 22.2292 20.25 22.75 20.25C23.6042 20.25 24.2344 20.375 24.6406 20.625C25.0469 20.875 25.25 21.1667 25.25 21.5C25.25 21.7917 25.0677 22.0573 24.7031 22.2969C24.3385 22.5365 23.5 22.9583 22.1875 23.5625C20.5208 24.2917 19.3646 24.9531 18.7188 25.5469C18.0729 26.1406 17.75 26.875 17.75 27.75C17.75 28.4167 17.9271 28.9844 18.2812 29.4531C18.6354 29.9219 19.1146 30.3333 19.7188 30.6875Z" fill="#5090DA"/>
</g>
</svg>
