<svg width="58" height="58" viewBox="0 0 58 58" fill="none" xmlns="http://www.w3.org/2000/svg">
<circle cx="29" cy="29" r="28.5" stroke="#5090DA"/>
<mask id="mask0_216_1354" style="mask-type:alpha" maskUnits="userSpaceOnUse" x="14" y="14" width="30" height="30">
<rect x="14" y="14" width="30" height="30" fill="#D9D9D9"/>
</mask>
<g mask="url(#mask0_216_1354)">
<path d="M29 41.5C27.2708 41.5 25.6458 41.1719 24.125 40.5156C22.6042 39.8594 21.2812 38.9688 20.1562 37.8438C19.0312 36.7188 18.1406 35.3958 17.4844 33.875C16.8281 32.3542 16.5 30.7292 16.5 29C16.5 27.2708 16.8281 25.6458 17.4844 24.125C18.1406 22.6042 19.0312 21.2812 20.1562 20.1562C21.2812 19.0312 22.6042 18.1406 24.125 17.4844C25.6458 16.8281 27.2708 16.5 29 16.5C30.7292 16.5 32.3542 16.8281 33.875 17.4844C35.3958 18.1406 36.7188 19.0312 37.8438 20.1562C38.9688 21.2812 39.8594 22.6042 40.5156 24.125C41.1719 25.6458 41.5 27.2708 41.5 29C41.5 30.7292 41.1719 32.3542 40.5156 33.875C39.8594 35.3958 38.9688 36.7188 37.8438 37.8438C36.7188 38.9688 35.3958 39.8594 33.875 40.5156C32.3542 41.1719 30.7292 41.5 29 41.5ZM29 39C31.7917 39 34.1562 38.0312 36.0938 36.0938C38.0312 34.1562 39 31.7917 39 29C39 28.8542 38.9948 28.7031 38.9844 28.5469C38.974 28.3906 38.9688 28.2604 38.9688 28.1562C38.8646 28.7604 38.5833 29.2604 38.125 29.6563C37.6667 30.0521 37.125 30.25 36.5 30.25H34C33.3125 30.25 32.724 30.0052 32.2344 29.5156C31.7448 29.026 31.5 28.4375 31.5 27.75V26.5H26.5V24C26.5 23.3125 26.7448 22.724 27.2344 22.2344C27.724 21.7448 28.3125 21.5 29 21.5H30.25C30.25 21.0208 30.3802 20.599 30.6406 20.2344C30.901 19.8698 31.2188 19.5729 31.5938 19.3438C31.1771 19.2396 30.7552 19.1562 30.3281 19.0938C29.901 19.0312 29.4583 19 29 19C26.2083 19 23.8438 19.9688 21.9063 21.9063C19.9688 23.8438 19 26.2083 19 29H25.25C26.625 29 27.8021 29.4896 28.7812 30.4688C29.7604 31.4479 30.25 32.625 30.25 34V35.25H26.5V38.6875C26.9167 38.7917 27.3281 38.8698 27.7344 38.9219C28.1406 38.974 28.5625 39 29 39Z" fill="#5090DA"/>
</g>
</svg>
